<?xml version="1.0" standalone="no"?>
<!DOCTYPE svg PUBLIC "-//W3C//DTD SVG 20010904//EN"
 "http://www.w3.org/TR/2001/REC-SVG-20010904/DTD/svg10.dtd">
<svg version="1.0" xmlns="http://www.w3.org/2000/svg"
 width="512.000000pt" height="512.000000pt" viewBox="0 0 512.000000 512.000000"
 preserveAspectRatio="xMidYMid meet">
<metadata>
Created by potrace 1.14, written by Peter Selinger 2001-2017
</metadata>
<g transform="translate(0.000000,512.000000) scale(0.100000,-0.100000)"
fill="#000000" stroke="none">
<path d="M2375 4943 c-95 -20 -231 -74 -317 -125 -85 -50 -223 -179 -283 -262
-76 -108 -137 -248 -166 -381 -18 -84 -16 -324 3 -402 l15 -63 -327 0 c-276 0
-334 -3 -375 -16 -156 -54 -196 -262 -71 -372 21 -18 51 -35 67 -39 16 -3 29
-7 29 -10 0 -2 -37 -79 -81 -171 -260 -535 -256 -524 -246 -645 15 -180 165
-348 334 -373 l43 -6 0 -689 0 -688 -45 -6 c-161 -25 -231 -216 -121 -334 61
-65 -63 -61 1728 -61 1621 0 1632 0 1674 20 24 12 54 39 70 62 25 36 29 50 29
113 0 60 -4 77 -25 107 -32 47 -92 86 -146 94 l-44 6 0 687 0 686 72 17 c209
51 344 271 299 488 -7 34 -71 176 -166 369 -85 172 -155 316 -155 320 1 3 24
17 53 31 132 64 158 236 51 343 -64 64 -87 67 -457 67 -288 0 -328 2 -323 15
3 8 13 54 22 102 21 110 14 284 -15 395 -97 373 -392 653 -759 724 -94 18
-277 17 -367 -3z m420 -155 c150 -54 247 -117 361 -235 116 -121 204 -299 207
-424 1 -32 5 -52 9 -46 4 7 6 -6 4 -28 -2 -22 -4 -47 -5 -55 -1 -13 -2 -13
-11 0 -6 10 -10 11 -10 3 0 -7 -11 -13 -24 -13 -13 0 -26 -7 -29 -15 -3 -8
-15 -12 -26 -10 -16 3 -20 -5 -29 -58 -16 -99 -31 -148 -64 -212 -89 -176
-268 -322 -453 -370 -73 -19 -246 -18 -325 2 -106 26 -279 122 -319 176 -8 11
-21 17 -32 14 -10 -3 -20 1 -23 9 -8 20 -65 18 -73 -2 -4 -12 -8 -13 -13 -3
-6 9 -12 6 -21 -9 -12 -20 -14 -19 -48 30 -45 67 -97 182 -116 254 -23 88 -20
291 5 390 76 299 309 533 610 614 110 29 325 23 425 -12z m-1079 -1292 l41
-74 -36 -6 c-20 -3 -198 -6 -395 -6 -356 0 -360 0 -383 22 -31 29 -32 89 -1
118 21 19 33 20 377 20 l356 0 41 -74z m2458 45 c31 -29 34 -69 7 -102 l-19
-24 -334 -3 c-183 -1 -366 0 -405 4 l-73 6 29 41 c15 23 36 57 45 75 l17 33
354 -3 353 -3 26 -24z m-2684 -269 c38 -6 45 -11 44 -30 -1 -32 20 -27 33 8
l11 30 109 0 c61 0 112 -3 115 -6 4 -3 2 -18 -2 -34 -8 -27 -4 -32 41 -67 28
-21 52 -37 55 -35 2 1 12 -6 23 -17 28 -28 288 -154 304 -148 8 3 17 24 20 47
3 23 7 44 10 46 2 2 42 -4 88 -15 159 -36 342 -35 473 4 67 20 75 19 70 -7 -3
-18 -2 -18 6 3 7 17 21 29 38 32 23 4 25 4 9 -8 -9 -7 -17 -19 -17 -28 0 -8
-4 -17 -8 -19 -5 -1 -12 -16 -16 -33 -6 -28 -5 -29 8 -11 8 10 19 15 25 11 6
-3 11 -1 11 5 0 6 10 8 23 5 40 -11 316 144 309 174 -1 6 1 10 5 9 5 -1 18 4
30 12 17 11 20 18 12 33 -22 41 -7 47 116 47 l116 0 10 -30 11 -30 162 0 c181
0 192 -3 226 -70 50 -99 250 -558 250 -575 0 -3 -97 -5 -215 -5 l-215 0 0 -60
0 -60 -140 0 -140 0 0 60 0 60 -277 0 -278 0 3 -60 4 -60 -59 0 c-49 0 -60 -3
-73 -22 -8 -13 -15 -30 -16 -38 -2 -8 -9 -19 -16 -25 -7 -5 -14 -17 -16 -25
-6 -27 -56 -72 -107 -96 -69 -33 -145 -32 -213 2 -59 29 -94 67 -136 148 l-29
56 -59 0 -58 0 0 60 0 60 -274 0 -273 0 -7 -60 -7 -60 -134 0 -135 0 0 60 0
60 -225 0 -225 0 0 -35 c0 -20 7 -47 16 -61 l17 -25 -79 3 -79 3 1 55 c1 61 5
69 224 518 l123 252 166 -1 c91 0 186 -4 211 -7z m1753 -22 c4 -16 2 -18 -12
-10 -12 6 -23 5 -32 -3 -7 -7 -5 -2 5 11 23 27 32 28 39 2z m54 14 c-3 -3 -12
-4 -19 -1 -8 3 -5 6 6 6 11 1 17 -2 13 -5z m-1329 -69 c-3 -3 -9 2 -12 12 -6
14 -5 15 5 6 7 -7 10 -15 7 -18z m1182 -22 c-28 -19 -48 -12 -26 10 9 9 23 14
32 10 12 -4 11 -8 -6 -20z m-58 -35 c-7 -7 -10 -5 -7 8 5 29 6 30 12 16 3 -8
1 -18 -5 -24z m-907 -48 c3 -6 -1 -7 -9 -4 -18 7 -21 14 -7 14 6 0 13 -4 16
-10z m85 -882 c48 -54 103 -93 144 -104 54 -13 21 -19 -121 -22 -160 -3 -195
-13 -220 -63 -10 -18 -13 -144 -13 -509 l0 -485 -390 0 -389 0 -23 -23 c-21
-21 -23 -34 -28 -165 l-5 -142 -40 0 -40 0 -3 625 c-3 627 1 770 20 770 6 0
37 13 69 30 l59 30 0 -45 0 -44 33 11 c17 6 63 42 100 81 l68 69 48 -45 c26
-25 62 -52 79 -61 49 -25 141 -46 210 -47 53 -1 62 -4 62 -20 0 -14 -9 -19
-47 -22 l-48 -3 52 -2 c51 -2 52 -2 55 29 3 28 9 34 43 44 92 27 194 106 232
180 l16 29 16 -23 c9 -13 36 -46 61 -73z m723 -5 c39 -45 111 -90 174 -110 48
-15 53 -20 53 -45 0 -15 4 -28 9 -28 5 0 7 9 4 20 -6 23 8 27 115 33 94 6 205
57 253 118 l32 40 17 -28 c9 -15 31 -40 47 -54 17 -15 37 -36 45 -48 8 -11 29
-24 46 -27 31 -6 31 -6 34 40 l3 46 35 -23 c19 -13 53 -31 75 -39 l40 -16 3
-526 2 -526 -22 0 c-13 0 -220 -1 -461 -2 l-437 -3 0 486 c0 478 0 487 -21
513 -39 49 -66 56 -226 57 l-148 0 54 25 c68 31 131 82 173 140 l32 45 21 -28
c11 -15 33 -42 48 -60z m-510 -259 c152 -23 192 -35 192 -59 0 -19 -10 -20
-176 -25 -128 -4 -180 -9 -192 -19 -15 -12 -17 -69 -19 -580 l-3 -566 -40 0
-40 0 -1 633 -1 632 84 0 c46 0 135 -7 196 -16z m291 -769 c19 -19 10 -45 -15
-45 -25 0 -35 26 -19 45 15 18 15 18 34 0z m1400 -636 c30 -24 33 -48 9 -78
l-18 -21 -1609 -1 c-1756 0 -1638 -4 -1638 55 0 15 8 36 17 46 18 20 40 20
1615 20 l1597 0 27 -21z"/>
<path d="M2523 4620 c-26 -10 -43 -39 -43 -72 0 -20 -8 -25 -52 -36 -29 -7
-76 -28 -105 -48 -224 -154 -152 -502 120 -574 l47 -13 0 -58 c0 -33 -4 -59
-9 -59 -5 0 -34 11 -65 25 -71 31 -143 33 -178 5 -58 -45 -62 -132 -10 -204
34 -46 144 -109 212 -120 39 -6 40 -7 40 -47 0 -52 34 -89 84 -89 46 0 76 37
76 94 l0 42 59 12 c94 20 169 82 218 181 23 45 27 68 27 140 1 102 -12 144
-65 211 -44 56 -105 95 -187 119 -54 16 -57 19 -60 52 -4 55 7 63 62 45 103
-35 174 -7 197 76 24 92 -41 170 -178 211 -64 18 -73 24 -73 44 0 13 -11 35
-25 48 -25 26 -54 30 -92 15z m119 -191 c83 -18 148 -54 148 -83 0 -32 -17
-37 -60 -19 -96 41 -200 54 -257 32 -43 -16 -92 -69 -103 -111 -18 -65 13
-133 73 -165 18 -9 79 -24 135 -34 125 -21 186 -50 227 -108 28 -40 30 -49 30
-129 0 -82 -2 -90 -33 -135 -62 -89 -146 -117 -295 -99 -136 17 -229 68 -211
116 9 23 35 20 95 -11 48 -25 63 -28 159 -28 98 0 109 2 147 27 52 34 77 87
69 141 -15 95 -74 139 -211 158 -127 17 -198 57 -236 130 -33 67 -36 128 -6
191 51 113 173 160 329 127z m-159 -230 c4 -16 3 -18 -9 -8 -7 6 -11 15 -8 20
8 13 11 11 17 -12z m178 -377 c6 -15 2 -28 -11 -44 l-19 -23 -1 48 c0 51 16
61 31 19z"/>
<path d="M2025 3550 c10 -11 20 -20 23 -20 3 0 -3 9 -13 20 -10 11 -20 20 -23
20 -3 0 3 -9 13 -20z"/>
<path d="M2718 2393 c6 -2 18 -2 25 0 6 3 1 5 -13 5 -14 0 -19 -2 -12 -5z"/>
<path d="M1703 2033 c9 -2 25 -2 35 0 9 3 1 5 -18 5 -19 0 -27 -2 -17 -5z"/>
</g>
</svg>
